<?xml version="1.0" encoding="utf-8"?>
<!-- Generator: Adobe Illustrator 17.0.0, SVG Export Plug-In . SVG Version: 6.00 Build 0)  -->
<!DOCTYPE svg PUBLIC "-//W3C//DTD SVG 1.1//EN" "http://www.w3.org/Graphics/SVG/1.1/DTD/svg11.dtd">
<svg version="1.1" id="Layer_1" xmlns="http://www.w3.org/2000/svg" xmlns:xlink="http://www.w3.org/1999/xlink" x="0px" y="0px"
	 width="256px" height="256px" viewBox="0 0 256 256" enable-background="new 0 0 256 256" xml:space="preserve">
<g>
	<g>
		<path fill="#F1D41E" d="M57.945,64.022c0,0,36.753-10.317,68.993-25.792c0,0,50.939,23.213,67.703,25.792
			c0,0,14.83,88.337-67.703,128.314C126.938,192.336,52.142,161.386,57.945,64.022z"/>
		<path fill="#FFFEFF" d="M62.977,67.776c0,0,34.062-9.561,63.94-23.903c0,0,47.208,21.513,62.745,23.903
			c0,0,13.744,81.867-62.745,118.917C126.917,186.693,57.599,158.01,62.977,67.776z"/>
		<path fill="#F1D41E" d="M69.507,72.083c0,0,30.974-8.694,58.144-21.736c0,0,42.929,19.563,57.057,21.736
			c0,0,12.498,74.446-57.057,108.138C127.652,180.22,64.617,154.137,69.507,72.083z"/>
	</g>
	<path d="M158.07,143.262c0,2.264-1.663,4.1-3.714,4.1h-51.537c-2.051,0-3.714-1.836-3.714-4.1v-26.136c0-2.264,1.663-4.1,3.714-4.1
		h51.537c2.051,0,3.714,1.836,3.714,4.1V143.262z"/>
	<path d="M103.474,87.196l10.328-0.242c0,0,15.544-16.321,30.051,0.242c0,0,1.451,1.934,2.66,6.045v16.442h8.705V93.657
		c0,0,0-19.518-24.058-23.387C131.159,70.27,111.452,68.094,103.474,87.196z"/>
	<g>
		<circle fill="#F1D41E" cx="128.427" cy="130.828" r="11.674"/>
		<circle cx="128.427" cy="130.828" r="10.707"/>
		<circle fill="#F1D41E" cx="128.427" cy="130.828" r="10.129"/>
		<text transform="matrix(1 0 0 1 119.3195 138.9662)" font-family="'PerpetuaTitlingMT-Bold'" font-size="16.8568">W</text>
		<text transform="matrix(1 0 0 1 137.5755 138.9662)" font-family="'PerpetuaTitlingMT-Light'" font-size="16.8568">  </text>
	</g>
	<text transform="matrix(1 0 0 1 49.5525 214.7096)" font-family="'Arial-Black'" font-size="21">SECURE MOZ</text>
</g>
</svg>
